<!-- arsch.svg -->
<svg version="1.1" id="Arsch" xmlns="http://www.w3.org/2000/svg" xmlns:xlink="http://www.w3.org/1999/xlink" viewBox="0 0 612 722.6" xml:space="preserve">
    <path id="Arsch" style="fill:#CCCCCC;stroke:#000000;stroke-linejoin:round;stroke-miterlimit:1.4142;"
    d="M404.4,312.3c2.8-0.5,47.1,21.6,49.5,55.8c2.4,34.1-24.1,46.4-46.5,40.4c-22.4-6-20.7-32.7-20.1-39.1
    c0.4-4.6,4.4-14.9,8-39.8C396,325.2,401.6,312.8,404.4,312.3L404.4,312.3z M512.8,316.5c-2.5-1-47.2,12.3-55.6,45.3
    c-8.3,33,13.9,50.1,35.6,48.5c21.7-1.6,24.9-28.1,25.5-34.5c0.4-4.6-1.4-15.4-0.3-40.6C518.2,330.8,515.3,317.5,512.8,316.5z"/>
</svg>
