<!-- beine.svg -->
<svg version="1.1" id="Beine" xmlns="http://www.w3.org/2000/svg" xmlns:xlink="http://www.w3.org/1999/xlink" viewBox="0 0 612 722.6" xml:space="preserve">
  <path id="Beine" style="fill:#CCCCCC;stroke:#000000;stroke-linejoin:round;stroke-miterlimit:1.4142;"
    d="M465.967,411.958C465.967,411.958,508.831,413.656,515.626,407.661C522.42,401.666,521.221,441.335,512.628,483
      C506.68,524.076,510.199,525.099,509,524C499.352,516.801,495.942,498.386,495.342,498.885
      C494.843,499.285,475.559,527.761,478.656,549.943C478.856,551.242,462.698,449.227,460,436.837
      C457.202,424.647,455.436,412.108,465.967,411.958L465.967,411.958z M444.685,411.958
      C444.685,411.958,402.02,413.656,395.226,407.661C388.431,401.666,388.631,440.334,397.224,481.999
      C402.501,521.507,399.801,526.099,401,525C409.559,518.762,414.809,498.386,415.409,498.885
      C415.908,499.285,435.093,527.761,431.995,549.943C431.795,551.242,447.682,443.39,450.38,431
      C453.078,418.81,453.277,412.357,444.685,411.958z"/>
</svg>
