<!-- bizeps.svg -->
<svg version="1.1" id="Bizeps" xmlns="http://www.w3.org/2000/svg" xmlns:xlink="http://www.w3.org/1999/xlink" viewBox="0 0 612 722.6" xml:space="preserve">
  <path id="Bizeps" style="fill:#CCCCCC;stroke:#000000;stroke-width:2;stroke-linejoin:round;stroke-miterlimit:1.4142;"
    d="M87.7,169.6c0,0,3.8,58.4-0.6,61c-5.1,3-7.8,31.8-7.8,31.8s-2.6-7.3-5.5-7c-2.9,0.3-8.4,5.8-9.6,7.8
       C63.1,265.1,46.1,203,87.7,169.6L87.7,169.6z 
       M220.9,177.2c0,0-3.8,58.4,0.7,61c5.1,3,7.8,31.8,7.8,31.8s2.6-7.3,5.5-7c2.9,0.3,8.4,5.8,9.6,7.8
       C245.6,272.7,262.6,210.6,220.9,177.2L220.9,177.2z"/>
</svg>
