<!-- brust.svg -->
<svg version="1.1" id="Brust" xmlns="http://www.w3.org/2000/svg" xmlns:xlink="http://www.w3.org/1999/xlink" viewBox="0 0 612 722.6" xml:space="preserve">
  <path id="Brust" style="fill:#CCCCCC;stroke:#000000;stroke-width:2;stroke-linejoin:round;stroke-miterlimit:1.4142;"
    d="M146.2,139c-1.1,13.9,7,31.1,7.1,41.5c0.1,14-1.1,25.4-26,28.2c-19.9,2.2-24.4-6-30.9-10.2
       c-4-2.6-5.3-29.1-8.9-33.1c-2.5-2.7,13.9-31,36.6-30.8C146.9,134.8,146.5,136,146.2,139L146.2,139z 
       M160.4,139c1.1,13.9-7,31.1-7.1,41.5c-0.1,14,1.1,25.4,26,28.2c19.9,2.2,24.4-6,30.9-10.2
       c4-2.6,5.3-29.1,9-33.1c2.5-2.7-13.9-31-36.6-30.8C159.8,134.8,160.2,136,160.4,139L160.4,139z"/>
</svg>
