<!-- oberschenkel.svg -->
<svg version="1.1" id="Oberschenkel" xmlns="http://www.w3.org/2000/svg" xmlns:xlink="http://www.w3.org/1999/xlink" viewBox="0 0 612 722.6" xml:space="preserve">
  <path id="Oberschenkel" style="fill:#CCCCCC;stroke:#000000;stroke-linejoin:round;stroke-miterlimit:1.4142;"
    d="M109.863,332.624c0,0,37.069,82.131,34.271,120.599c-2.797,38.468-7.134,51.985-7.134,61.777
       c0,9.792,2.838-13.816-9.452-13.916c-14.388-0.099-25.079,11.591-28.976,24.38c-0.599,1.799-2.098-36.47-2.098-36.47
       c0,0-4.177-10.591-7.574-45.961c-5.096-53.756,33.552-73.04,21.863-109.409z 
       M195.991,332.624c0,0-38.468,82.131-35.67,120.599c3.973,29.465,9.679,51.985,9.679,61.777
       c0,9.792-1.186-13.816,11.104-13.916c14.388-0.099,22.281,11.591,26.178,24.38c0.599,1.799,3.997-36.47,3.997-36.47
       c0,0,4.324-12.623,7.721-48.194c4.996-53.755-34.798-71.007-22.009-107.376z"/>
</svg>
