<svg version="1.1" id="Layer_1" xmlns="http://www.w3.org/2000/svg" xmlns:xlink="http://www.w3.org/1999/xlink" viewBox="0 0 612 722.6" xml:space="preserve">
    <path id="Oberschenkel" style="fill:#CCCCCC;stroke:#000000;stroke-linejoin:round;stroke-miterlimit:1.4142;" d="M104.1,304.4c0,0,10.6,62.8,1.3,95.8c-6.4,22.4-22.3,35.5-30.1,54.5c-4.8,11.9-0.1,28.1,0.1,42.6c0,0,10.3,44.7,25.6,41.3c9.4-2.1,24.1-14.8,32.5-23.3c1.2-1.2,2.5-2.6,2.5-4.1c0-1.1-1.2-2.4-1.4-3.4c-1.4-5.8,11.6-4.8,16.8-3.9c3.8,0.7,7.2,2.2,10.8,2.7c4.6,0.6,8.8-0.3,13.3-0.8c3.7-0.4,10.2,2.1,12.8,2.1c2.7,0,4.8-1.8,6.9-3.3c0.8-0.6,3.8-5.1,3.4-4.4c0.4-0.7,1.1-1.2,1.6-2.1c1.6-2.5-0.1-5.7,0.2-8.3c0.5-4.1,0.7-7.5-3.2-10.7c-3.8-3.2-7.7-1.2-11.2-2.3c-4.4-1.4-8.8-2.8-13.2-4.2c-5.4-1.7-11-3.3-16.6-5.1c-6.5-2-13.4-3.6-19.5-6.5c-6.6-3.1-11.2-8.6-17.3-12.5c-11.4-7.1-22.3-14.2-33.6-21.1c-5.7-3.5-14.3-6.1-16.6-13.1C91,359,92.4,347.1,95.4,334.7C99.1,318.4,104.1,304.4,104.1,304.4z"/>
</svg>
