<!-- schultern.svg -->
<svg version="1.1" id="Schultern" xmlns="http://www.w3.org/2000/svg" xmlns:xlink="http://www.w3.org/1999/xlink" viewBox="0 0 612 722.6" xml:space="preserve">
  <path id="Schultern" style="fill:#CCCCCC;stroke:#000000;stroke-width:2;stroke-linejoin:round;stroke-miterlimit:1.4142;"
    d=" M 124.251 131.99 C 124.251 131.99 79.794 110.771 64.401 146 C 57.906 159.489 61.803 200.134 62.003 202.132 C 62.102 203.431 74.792 174.755 85.683 168.66 C 87.581 167.661 85.183 139.784 124.251 131.99 Z M 182.502 131.99 C 182.502 131.99 225.315 109.33 243 146 C 249.495 159.489 244.951 200.134 244.751 202.132 C 244.651 
    203.431 231.961 174.755 221.07 168.66 C 219.172 167.661 221.57 139.784 182.502 131.99 L 182.502 131.99 Z "/>
  <path id="Schultern" style="fill:#CCCCCC;stroke:#000000;stroke-width:2;stroke-linejoin:round;stroke-miterlimit:1.4142;"
    d="M387,131.8c0,0-13,0-21.9,28.3c0,0,17-3.2,27.3,6.1c0,0,11.5-10.1,9.1-17.2C401.5,149,404.5,140.7,387,131.8z M524.6,132.8c0,0,13,0,21.9,28.3c0,0-17-3.2-27.3,6.1c0,0-11.5-10.1-9.1-17.2C510.1,150,507.1,141.7,524.6,132.8z"/>
</svg>
