<!-- trizeps.svg -->
<svg version="1.1" id="Trizeps" xmlns="http://www.w3.org/2000/svg" xmlns:xlink="http://www.w3.org/1999/xlink" viewBox="0 0 612 722.6" xml:space="preserve">
  <path id="Trizeps" style="fill:#CCCCCC;stroke:#000000;stroke-linejoin:round;stroke-miterlimit:1.4142;"
    d="M516.825,170.958C516.825,170.958,529.714,163.364,534.31,165.562C538.906,167.761,547.299,181.749,548.298,187.544
       C546.994,202.329,551,239.101,551,239.101C551,239.101,551.895,244.896,547.299,246.295C542.803,247.694,543.403,234.405,540.005,232.906
       C536.608,231.408,539.805,243.198,536.408,244.197C533.011,245.096,522.92,241,522.92,241L515.326,222.015
       C515.226,222.015,522.42,181.149,516.825,170.958L516.825,170.958Z 
       M393.727,170.059C393.727,170.059,380.838,162.365,376.241,164.563C371.645,166.761,363.252,180.95,362.253,186.845
       C362.702,204.289,360,238,360,238C360,238,358.656,244.896,363.252,246.295C367.748,247.694,367.149,234.205,370.546,232.707
       C373.943,231.208,370.746,243.198,374.143,244.097C377.54,244.996,387.632,240.9,387.632,240.9L395.226,221.716
       C395.326,221.716,388.132,180.35,393.727,170.059Z"/>
</svg>
