<svg version="1.1" id="Layer_1" xmlns="http://www.w3.org/2000/svg" xmlns:xlink="http://www.w3.org/1999/xlink" viewBox="0 0 612 722.6" xml:space="preserve">
    <path id="Trizeps" style="fill:#CCCCCC;stroke:#000000;stroke-linejoin:round;stroke-miterlimit:1.4142;" d="M516.825,170.958c0,0,12.889-7.594,17.485-5.396c4.596,2.198,12.989,16.186,13.988,21.981c-1.304,14.785,2.701,51.557,2.701,51.557s0.895,5.795-3.701,7.194c-4.496,1.399-4.096-11.89-7.494-13.389c-3.397-1.498-0.2,10.292-3.597,11.291c-3.397,0.999-13.488-4.1-13.488-4.1L515.326,222.015C515.226,222.015,522.42,181.149,516.825,170.958z M393.727,170.059c0,0-12.889-7.694-17.485-5.496c-4.596,2.198-12.989,16.387-13.988,21.981c0.449,17.444-2.252,51.155-2.252,51.155s-1.344,6.896,3.252,8.295c4.496,1.399,4.096-11.89,7.494-13.389c3.397-1.498,0.2,10.292,3.597,11.291c3.397,0.999,13.488-4.1,13.488-4.1L395.226,221.716C395.326,221.716,388.132,180.35,393.727,170.059z"/>
</svg>
