<!-- waden.svg -->
<svg version="1.1" id="Waden" xmlns="http://www.w3.org/2000/svg" xmlns:xlink="http://www.w3.org/1999/xlink" viewBox="0 0 612 722.6" xml:space="preserve">
  <path id="Waden" style="fill:#CCCCCC;stroke:#000000;stroke-linejoin:round;stroke-miterlimit:1.4142;"
    d="M496.741,528.96C496.741,528.96,477.257,553.64,475.959,563.732C472.885,582.676,477.198,619.534,477.957,630.976
      C480.655,637.17,493.944,617.187,497.241,604.697C500.538,592.208,493.707,616.288,502,625.28
      C503.399,626.779,518.762,576.402,515.326,559C511.534,541.504,510.135,541.504,509,534
      C508.567,517.978,501.837,528.96,500.238,536.354C498.64,543.748,496.741,528.96,496.741,528.96L496.741,528.96z
      M414.51,528.96C414.51,528.96,433.701,554.908,435,565C436.511,589.826,432.89,616.005,431.995,630.976
      C429.297,637.17,417.307,617.187,414.01,604.697C410.713,592.208,417.293,616.288,409,625.28
      C407.601,626.779,392.857,581.191,395.226,563.732C396.815,544.641,403.499,541.491,402,531
      C403.089,522.291,409.414,528.96,411.013,536.354C412.611,543.748,414.51,528.96,414.51,528.96L414.51,528.96z"/>
</svg>
