<svg version="1.1" id="Layer_1" xmlns="http://www.w3.org/2000/svg" xmlns:xlink="http://www.w3.org/1999/xlink" viewBox="0 0 612 722.6" xml:space="preserve">
<path id="Front" style="fill:#EEEEEE;stroke:#000000;stroke-linejoin:round;stroke-miterlimit:1.4142;" d="M153.2,410.3c-1,12.3,11.1,77.6,15.4,103.1c2,12.1,7.7,31.7,5.6,42.2c-2.9,14.6-3.7,33.4-2.1,44.4
    c1,6.7,4.2,37.4-0.4,48.6c-2.4,5.9-6.7,36.1-6.7,36.1c-11.3,28.5-4.9,27-4.9,27c3.5,4.3,9.5,0.3,9.5,0.3c4.6,2.9,7.7-0.7,7.7-0.7
    c3.9,3.2,8.5-0.4,8.5-0.4c4.9,2.5,9.5-2.1,9.5-2.1c2.8,1.4,3.5-0.4,3.5-0.4c8.5-0.5-4.7-27.6-4.7-27.6c-3.2-24.3,3.1-37.8,3.1-37.8
    c20.6-61.1,21.6-77.3,13.4-100.3c-2.3-6.6-2.9-9.3-1.8-12.2c2.5-6.7,0.7-33.4,3.7-44.1c5.8-20.5,11.5-72.5,14.5-96.8
    c4-32.7-14.2-76.5-14.2-76.5c-4-17.8,1.9-81.4,1.9-81.4c8.2,12.7,7.9,35.1,7.9,35.1c-1.3,23.5,19,59.5,19,59.5
    c9.8,14.9,13.5,29,13.5,30c0,4.3-0.9,14.6-0.9,14.6l0.4,9c0.2,2.3,1.5,10.2,1.3,14c-1.5,23.5,2.2,19.1,2.2,19.1
    c3.2,0,6.6-18.9,6.6-18.9c0,4.9-1.2,19.5,1.4,25c3.2,6.6,5.5-1.1,5.5-2.7c0.8-30,2.6-22.1,2.6-22.1c1.8,24.3,3.9,29.8,7.8,27.9
    c2.9-1.4,0.3-29.2,0.3-29.2c5,16.5,8.8,19.1,8.8,19.1c8.3,5.8,3.2-10.2,2-13.4c-6.1-16.9-6.3-22.7-6.3-22.7
    c7.6,15.2,13.4,14.6,13.4,14.6c7.5-2.4-6.5-23.9-14.7-34.1c-4.2-5.2-9.6-12.3-11.1-16.4c-2.5-7.1-4.5-29.8-4.5-29.8
    c-0.8-26.8-7.4-38.4-7.4-38.4c-11.3-18.1-13.5-51.9-13.5-51.9l-0.5-57.1c-4-38.9-32.6-39.2-32.6-39.2c-29-4.3-33-13.7-33-13.7
    c-6.1-8.8-2.6-25.8-2.6-25.8c5.1-4.1,7.1-15.1,7.1-15.1c8.5-6.5,8-16,4.1-15.9c-3.1,0.1-2.4-2.5-2.4-2.5C194,8.2,156.1,6,156.1,6
    h-5.8c0,0-38,2.2-32.7,44.9c0,0,0.7,2.6-2.5,2.5c-3.9-0.1-4.3,9.4,4.2,15.9c0,0,2,11,7.1,15.1c0,0,3.5,16.9-2.6,25.8
    c0,0-4,9.4-33,13.7c0,0-28.7,0.3-32.6,39.2l-0.5,57.1c0,0-2.1,33.8-13.5,51.9c0,0-6.6,11.6-7.4,38.4c0,0-1.9,22.7-4.5,29.8
    c-1.5,4.1-6.9,11.2-11.1,16.4C12.9,366.9-1,388.4,6.4,390.8c0,0,5.8,0.6,13.4-14.6c0,0-0.2,5.8-6.3,22.7c-1.2,3.1-6.3,19.2,2,13.4
    c0,0,3.8-2.6,8.8-19.1c0,0-2.7,27.8,0.3,29.2c3.9,1.9,6-3.6,7.8-27.9c0,0,1.8-7.9,2.6,22.1c0,1.5,2.3,9.3,5.5,2.7
    c2.7-5.5,1.5-20.1,1.5-25c0,0,3.4,18.9,6.6,18.9c0,0,3.8,4.4,2.2-19.1c-0.3-3.8,1.1-11.7,1.3-14l0.4-9c0,0-0.9-10.3-0.9-14.6
    c0-1.1,3.7-15.1,13.5-30c0,0,20.3-36,19-59.5c0,0-0.3-22.4,7.9-35.1c0,0,5.8,63.6,1.9,81.4c0,0-18.2,43.8-14.2,76.5
    c3,24.3,8.7,76.3,14.5,96.8c3,10.6,1.2,37.4,3.7,44.1c1.1,2.9,0.5,5.6-1.8,12.2c-8.2,23-7.1,39.2,13.5,100.3c0,0,6.3,13.5,3.1,37.8
    c0,0-13.2,27.1-4.7,27.6c0,0,0.7,1.8,3.5,0.4c0,0,4.6,4.7,9.5,2.1c0,0,4.6,3.6,8.4,0.4c0,0,3.1,3.6,7.7,0.7c0,0,6,4,9.5-0.3
    c0,0,6.3,1.4-4.9-27c0,0-4.3-30.2-6.7-36.1c-4.5-11.2-1.3-42-0.4-48.6c1.6-11,0.7-29.8-2.1-44.4c-2.1-10.4,3.6-30.1,5.6-42.2
    C142.2,487.9,153.2,410.3,153.2,410.3L153.2,410.3z"/>
<path id="Back" style="fill:#EEEEEE;stroke:#000000;stroke-linejoin:round;stroke-miterlimit:1.4142;" d=" M 455.276 409.959 C 454.277 422.249 466.367 487.495 470.663 512.974 C 472.661 525.064 478.357 544.647 476.258 555.139 C 473.361 569.727 472.561 588.511 474.16 599.502 C 475.159 606.196 478.357 636.871 473.76 648.061 C 471.362 653.957 468 686 468 686 C 465.869 705.135 473.76 707.812 473.76 707.812 C 482.843 709.643 498 704 498 704 C 550.571 688.142 498 686 498 686 C 494.803 661.72 499.239 642.466 499.239 642.466 C 519.822 581.417 520.821 565.23 512.628 542.249 C 510.33 535.655 509.73 532.957 510.83 530.06 C 513.327 523.365 511.529 496.687 514.527 485.996 C 520.322 465.513 526.017 413.556 529.014 389.277 C 533.011 356.604 514.826 312.84 514.826 312.84 C 510.83 295.055 516.725 231.508 516.725 231.508 C 524.918 244.197 524.618 266.578 524.618 266.578 C 523.319 290.059 543.602 326.029 543.602 326.029 C 553.394 340.917 557.091 355.005 557.091 356.004 C 557.091 360.301 556.192 370.592 556.192 370.592 L 556.592 379.585 C 556.791 381.883 558.09 389.776 557.89 393.573 C 556.392 417.053 560.089 412.657 560.089 412.657 C 563.286 412.657 566.683 393.773 566.683 393.773 C 566.683 398.669 565.484 413.257 568.082 418.752 C 571.279 425.347 573.577 417.653 573.577 416.054 C 574.377 386.079 576.175 393.973 576.175 393.973 C 577.974 418.252 580.072 423.748 583.969 421.849 C 586.866 420.451 584.269 392.674 584.269 392.674 C 589.264 409.16 593.061 411.758 593.061 411.758 C 601.354 417.553 596.259 401.566 595.06 398.369 C 588.965 381.483 588.765 375.688 588.765 375.688 C 596.358 390.875 602.154 390.276 602.154 390.276 C 609.647 387.878 595.659 366.396 587.466 356.204 C 583.269 351.008 577.874 343.914 576.375 339.818 C 573.877 332.723 571.879 310.042 571.879 310.042 C 571.079 283.265 564.485 271.674 564.485 271.674 C 552.895 253.789 550.796 220.017 550.796 220.017 L 550.297 162.965 C 546.3 124.097 517.624 123.797 517.624 123.797 C 488.648 119.501 484.651 110.108 484.651 110.108 C 478.556 101.316 482.053 84.33 482.053 84.33 C 487.149 80.233 489.148 69.242 489.148 69.242 C 497.641 62.748 497.141 53.256 493.244 53.356 C 490.147 53.456 490.846 50.858 490.846 50.858 C 496.142 8.193 458.173 5.995 458.173 5.995 L 452.378 5.995 C 452.378 5.995 414.51 8.193 419.705 50.858 C 419.705 50.858 420.405 53.456 417.207 53.356 C 413.311 53.256 412.911 62.748 421.404 69.242 C 421.404 69.242 423.402 80.233 428.498 84.33 C 428.498 84.33 431.995 101.216 425.9 110.108 C 425.9 110.108 421.903 119.501 392.928 123.797 C 392.928 123.797 364.251 124.097 360.355 162.965 L 359.855 220.017 C 359.855 220.017 357.757 253.789 346.366 271.874 C 346.366 271.874 339.772 283.464 338.972 310.242 C 338.972 310.242 337.074 332.923 334.476 340.017 C 332.977 344.114 327.582 351.208 323.385 356.404 C 315.092 366.695 301.304 388.077 308.698 390.475 C 308.698 390.475 314.493 391.075 322.086 375.888 C 322.086 375.888 321.887 381.683 315.792 398.569 C 314.593 401.666 309.497 417.753 317.79 411.958 C 317.79 411.958 321.587 409.36 326.583 392.874 C 326.583 392.874 323.885 420.65 326.882 422.049 C 330.779 423.948 332.877 418.452 334.676 394.172 C 334.676 394.172 336.474 386.279 337.274 416.254 C 337.274 417.753 339.572 425.546 342.769 418.952 C 345.467 413.456 344.268 398.869 344.268 393.973 C 344.268 393.973 347.665 412.857 350.863 412.857 C 350.863 412.857 354.659 417.253 353.061 393.773 C 352.761 389.976 354.16 382.082 354.36 379.784 L 354.759 370.792 C 354.759 370.792 353.86 360.5 353.86 356.204 C 353.86 355.105 357.557 341.117 367.349 326.229 C 367.349 326.229 387.632 290.259 386.333 266.778 C 386.333 266.778 386.033 244.397 394.226 231.707 C 394.226 231.707 400.022 295.255 396.125 313.04 C 396.125 313.04 377.94 356.803 381.937 389.476 C 384.934 413.756 390.629 465.713 396.425 486.196 C 399.422 496.787 397.624 523.565 400.122 530.259 C 401.221 533.157 400.621 535.855 398.323 542.449 C 390.13 565.43 391.229 581.617 411.812 642.666 C 411.812 642.666 416.197 661.72 413 686 C 413 686 367.995 686.979 414 704 C 414 704 425.24 709.513 437.191 708.411 C 437.191 708.411 449.062 708.885 443.885 684.331 C 443.885 684.331 439.589 654.156 437.191 648.261 C 432.694 637.071 435.892 606.296 436.791 599.702 C 438.39 588.711 437.491 569.926 434.693 555.338 C 432.595 544.947 438.29 525.264 440.288 513.174 C 444.285 487.495 455.276 409.959 455.276 409.959 L 455.276 409.959 Z "/>
</svg>
